<?xml version="1.0" standalone="no"?>
<!DOCTYPE svg PUBLIC "-//W3C//DTD SVG 20010904//EN"
 "http://www.w3.org/TR/2001/REC-SVG-20010904/DTD/svg10.dtd">
<svg version="1.0" xmlns="http://www.w3.org/2000/svg"
 width="46.000000pt" height="34.000000pt" viewBox="0 0 46.000000 34.000000"
 preserveAspectRatio="xMidYMid meet">

<g transform="translate(0.000000,34.000000) scale(0.100000,-0.100000)"
fill="#000000" stroke="none">
<path d="M108 233 c-54 -31 -98 -59 -98 -62 0 -5 173 -106 202 -119 5 -2 8 51
8 117 0 67 -3 121 -7 121 -5 0 -52 -26 -105 -57z"/>
<path d="M328 232 c-54 -31 -98 -59 -98 -62 1 -6 203 -120 214 -120 3 0 6 54
6 120 0 90 -3 120 -12 119 -7 0 -57 -26 -110 -57z"/>
</g>
</svg>
